<mxfile host="app.diagrams.net" agent="Mozilla/5.0 (Windows NT 10.0; Win64; x64) AppleWebKit/537.36 (KHTML, like Gecko) Chrome/133.0.0.0 Safari/537.36 OPR/118.0.0.0" version="27.0.9">
  <diagram name="Page-1" id="iOVRrdU6f9DdqcQpkHCz">
    <mxGraphModel dx="867" dy="508" grid="1" gridSize="10" guides="1" tooltips="1" connect="1" arrows="1" fold="1" page="1" pageScale="1" pageWidth="850" pageHeight="1100" math="0" shadow="0">
      <root>
        <mxCell id="0" />
        <mxCell id="1" parent="0" />
        <mxCell id="0JqR1inI1DJOHSlyyRP6-15" value="" style="edgeStyle=orthogonalEdgeStyle;rounded=0;orthogonalLoop=1;jettySize=auto;html=1;" edge="1" parent="1" source="0JqR1inI1DJOHSlyyRP6-1" target="0JqR1inI1DJOHSlyyRP6-6">
          <mxGeometry relative="1" as="geometry" />
        </mxCell>
        <mxCell id="0JqR1inI1DJOHSlyyRP6-57" style="edgeStyle=orthogonalEdgeStyle;rounded=0;orthogonalLoop=1;jettySize=auto;html=1;fillColor=#f8cecc;strokeColor=#b85450;" edge="1" parent="1" target="0JqR1inI1DJOHSlyyRP6-1">
          <mxGeometry relative="1" as="geometry">
            <mxPoint x="370" y="280" as="sourcePoint" />
            <Array as="points">
              <mxPoint x="370" y="260" />
            </Array>
          </mxGeometry>
        </mxCell>
        <mxCell id="0JqR1inI1DJOHSlyyRP6-59" style="edgeStyle=orthogonalEdgeStyle;rounded=0;orthogonalLoop=1;jettySize=auto;html=1;entryX=1;entryY=0.5;entryDx=0;entryDy=0;" edge="1" parent="1" source="0JqR1inI1DJOHSlyyRP6-1" target="0JqR1inI1DJOHSlyyRP6-58">
          <mxGeometry relative="1" as="geometry" />
        </mxCell>
        <mxCell id="0JqR1inI1DJOHSlyyRP6-60" value="PWM" style="edgeLabel;html=1;align=center;verticalAlign=middle;resizable=0;points=[];" vertex="1" connectable="0" parent="0JqR1inI1DJOHSlyyRP6-59">
          <mxGeometry x="0.26" y="1" relative="1" as="geometry">
            <mxPoint y="-1" as="offset" />
          </mxGeometry>
        </mxCell>
        <mxCell id="0JqR1inI1DJOHSlyyRP6-1" value="ESP32 MCU" style="rounded=1;whiteSpace=wrap;html=1;" vertex="1" parent="1">
          <mxGeometry x="390" y="250" width="120" height="60" as="geometry" />
        </mxCell>
        <mxCell id="0JqR1inI1DJOHSlyyRP6-4" value="" style="edgeStyle=orthogonalEdgeStyle;rounded=0;orthogonalLoop=1;jettySize=auto;html=1;" edge="1" parent="1" source="0JqR1inI1DJOHSlyyRP6-2" target="0JqR1inI1DJOHSlyyRP6-3">
          <mxGeometry relative="1" as="geometry" />
        </mxCell>
        <mxCell id="0JqR1inI1DJOHSlyyRP6-2" value="4S Battery" style="rounded=1;whiteSpace=wrap;html=1;" vertex="1" parent="1">
          <mxGeometry x="70" y="140" width="120" height="60" as="geometry" />
        </mxCell>
        <mxCell id="0JqR1inI1DJOHSlyyRP6-5" value="" style="edgeStyle=orthogonalEdgeStyle;rounded=0;orthogonalLoop=1;jettySize=auto;html=1;fillColor=#f8cecc;strokeColor=#b85450;" edge="1" parent="1" source="0JqR1inI1DJOHSlyyRP6-3" target="0JqR1inI1DJOHSlyyRP6-1">
          <mxGeometry relative="1" as="geometry" />
        </mxCell>
        <mxCell id="0JqR1inI1DJOHSlyyRP6-7" style="edgeStyle=orthogonalEdgeStyle;rounded=0;orthogonalLoop=1;jettySize=auto;html=1;entryX=0;entryY=0.5;entryDx=0;entryDy=0;fillColor=#f8cecc;strokeColor=#b85450;" edge="1" parent="1" source="0JqR1inI1DJOHSlyyRP6-3" target="0JqR1inI1DJOHSlyyRP6-6">
          <mxGeometry relative="1" as="geometry" />
        </mxCell>
        <mxCell id="0JqR1inI1DJOHSlyyRP6-3" value="Buck Converter&lt;br&gt;16&lt;span style=&quot;background-color: transparent; color: light-dark(rgb(0, 0, 0), rgb(255, 255, 255));&quot;&gt;V to 5V&lt;/span&gt;" style="rounded=1;whiteSpace=wrap;html=1;" vertex="1" parent="1">
          <mxGeometry x="220" y="140" width="120" height="60" as="geometry" />
        </mxCell>
        <mxCell id="0JqR1inI1DJOHSlyyRP6-8" value="" style="edgeStyle=orthogonalEdgeStyle;rounded=0;orthogonalLoop=1;jettySize=auto;html=1;" edge="1" parent="1" source="0JqR1inI1DJOHSlyyRP6-6" target="0JqR1inI1DJOHSlyyRP6-1">
          <mxGeometry relative="1" as="geometry" />
        </mxCell>
        <mxCell id="0JqR1inI1DJOHSlyyRP6-9" value="" style="edgeStyle=orthogonalEdgeStyle;rounded=0;orthogonalLoop=1;jettySize=auto;html=1;startArrow=classic;startFill=1;" edge="1" parent="1" source="0JqR1inI1DJOHSlyyRP6-6" target="0JqR1inI1DJOHSlyyRP6-1">
          <mxGeometry relative="1" as="geometry" />
        </mxCell>
        <mxCell id="0JqR1inI1DJOHSlyyRP6-10" value="D" style="edgeStyle=orthogonalEdgeStyle;rounded=0;orthogonalLoop=1;jettySize=auto;html=1;" edge="1" parent="1" source="0JqR1inI1DJOHSlyyRP6-6" target="0JqR1inI1DJOHSlyyRP6-1">
          <mxGeometry relative="1" as="geometry">
            <Array as="points">
              <mxPoint x="450" y="230" />
              <mxPoint x="450" y="230" />
            </Array>
          </mxGeometry>
        </mxCell>
        <mxCell id="0JqR1inI1DJOHSlyyRP6-70" style="edgeStyle=orthogonalEdgeStyle;rounded=0;orthogonalLoop=1;jettySize=auto;html=1;fillColor=#f8cecc;strokeColor=#b85450;" edge="1" parent="1">
          <mxGeometry relative="1" as="geometry">
            <mxPoint x="449.75" y="139" as="targetPoint" />
            <mxPoint x="449.75" y="119" as="sourcePoint" />
          </mxGeometry>
        </mxCell>
        <mxCell id="0JqR1inI1DJOHSlyyRP6-6" value="HX711 with Load Cell" style="whiteSpace=wrap;html=1;" vertex="1" parent="1">
          <mxGeometry x="390" y="140" width="120" height="60" as="geometry" />
        </mxCell>
        <mxCell id="0JqR1inI1DJOHSlyyRP6-25" style="edgeStyle=orthogonalEdgeStyle;rounded=0;orthogonalLoop=1;jettySize=auto;html=1;" edge="1" parent="1" source="0JqR1inI1DJOHSlyyRP6-11">
          <mxGeometry relative="1" as="geometry">
            <mxPoint x="450" y="310" as="targetPoint" />
            <Array as="points">
              <mxPoint x="600" y="330" />
              <mxPoint x="450" y="330" />
            </Array>
          </mxGeometry>
        </mxCell>
        <mxCell id="0JqR1inI1DJOHSlyyRP6-26" value="A" style="edgeLabel;html=1;align=center;verticalAlign=middle;resizable=0;points=[];" vertex="1" connectable="0" parent="0JqR1inI1DJOHSlyyRP6-25">
          <mxGeometry x="0.1009" relative="1" as="geometry">
            <mxPoint as="offset" />
          </mxGeometry>
        </mxCell>
        <mxCell id="0JqR1inI1DJOHSlyyRP6-49" style="edgeStyle=orthogonalEdgeStyle;rounded=0;orthogonalLoop=1;jettySize=auto;html=1;fillColor=#f8cecc;strokeColor=#b85450;" edge="1" parent="1" target="0JqR1inI1DJOHSlyyRP6-11">
          <mxGeometry relative="1" as="geometry">
            <mxPoint x="370" y="170" as="sourcePoint" />
            <Array as="points">
              <mxPoint x="600" y="430" />
            </Array>
          </mxGeometry>
        </mxCell>
        <mxCell id="0JqR1inI1DJOHSlyyRP6-11" value="WCS1700 60A&lt;br&gt;Current sensor" style="whiteSpace=wrap;html=1;" vertex="1" parent="1">
          <mxGeometry x="540" y="350" width="120" height="60" as="geometry" />
        </mxCell>
        <mxCell id="0JqR1inI1DJOHSlyyRP6-18" value="A - Analog Signal&lt;br&gt;D- Digital signal" style="text;strokeColor=none;align=center;fillColor=none;html=1;verticalAlign=middle;whiteSpace=wrap;rounded=0;" vertex="1" parent="1">
          <mxGeometry x="710" y="440" width="130" height="50" as="geometry" />
        </mxCell>
        <mxCell id="0JqR1inI1DJOHSlyyRP6-24" value="" style="edgeStyle=orthogonalEdgeStyle;rounded=0;orthogonalLoop=1;jettySize=auto;html=1;" edge="1" parent="1" source="0JqR1inI1DJOHSlyyRP6-19" target="0JqR1inI1DJOHSlyyRP6-1">
          <mxGeometry relative="1" as="geometry" />
        </mxCell>
        <mxCell id="0JqR1inI1DJOHSlyyRP6-27" value="A" style="edgeLabel;html=1;align=center;verticalAlign=middle;resizable=0;points=[];" vertex="1" connectable="0" parent="0JqR1inI1DJOHSlyyRP6-24">
          <mxGeometry x="-0.2776" y="1" relative="1" as="geometry">
            <mxPoint as="offset" />
          </mxGeometry>
        </mxCell>
        <mxCell id="0JqR1inI1DJOHSlyyRP6-55" style="edgeStyle=orthogonalEdgeStyle;rounded=0;orthogonalLoop=1;jettySize=auto;html=1;fillColor=#d5e8d4;strokeColor=#82b366;exitX=0.5;exitY=1;exitDx=0;exitDy=0;" edge="1" parent="1" source="0JqR1inI1DJOHSlyyRP6-2" target="0JqR1inI1DJOHSlyyRP6-19">
          <mxGeometry relative="1" as="geometry">
            <mxPoint x="170" y="300" as="sourcePoint" />
            <mxPoint x="456.48" y="421.32" as="targetPoint" />
            <Array as="points">
              <mxPoint x="130" y="440" />
              <mxPoint x="450" y="440" />
            </Array>
          </mxGeometry>
        </mxCell>
        <mxCell id="0JqR1inI1DJOHSlyyRP6-68" value="Sense" style="edgeLabel;html=1;align=center;verticalAlign=middle;resizable=0;points=[];" vertex="1" connectable="0" parent="0JqR1inI1DJOHSlyyRP6-55">
          <mxGeometry x="0.0973" y="-3" relative="1" as="geometry">
            <mxPoint x="-44" y="-3" as="offset" />
          </mxGeometry>
        </mxCell>
        <mxCell id="0JqR1inI1DJOHSlyyRP6-19" value="Resistor Divider Network to measure Voltage upto 60V" style="rounded=0;whiteSpace=wrap;html=1;" vertex="1" parent="1">
          <mxGeometry x="390" y="350" width="120" height="60" as="geometry" />
        </mxCell>
        <mxCell id="0JqR1inI1DJOHSlyyRP6-28" style="edgeStyle=orthogonalEdgeStyle;rounded=0;orthogonalLoop=1;jettySize=auto;html=1;" edge="1" parent="1">
          <mxGeometry relative="1" as="geometry">
            <mxPoint x="600" y="201" as="sourcePoint" />
            <mxPoint x="510" y="270.0344827586207" as="targetPoint" />
            <Array as="points">
              <mxPoint x="600" y="201" />
              <mxPoint x="600" y="270" />
            </Array>
          </mxGeometry>
        </mxCell>
        <mxCell id="0JqR1inI1DJOHSlyyRP6-34" value="I2C" style="edgeLabel;html=1;align=center;verticalAlign=middle;resizable=0;points=[];" vertex="1" connectable="0" parent="0JqR1inI1DJOHSlyyRP6-28">
          <mxGeometry x="-0.1904" y="-1" relative="1" as="geometry">
            <mxPoint x="1" y="-45" as="offset" />
          </mxGeometry>
        </mxCell>
        <mxCell id="0JqR1inI1DJOHSlyyRP6-71" style="edgeStyle=orthogonalEdgeStyle;rounded=0;orthogonalLoop=1;jettySize=auto;html=1;fillColor=#f8cecc;strokeColor=#b85450;entryX=0.5;entryY=0;entryDx=0;entryDy=0;" edge="1" parent="1" target="0JqR1inI1DJOHSlyyRP6-20">
          <mxGeometry relative="1" as="geometry">
            <mxPoint x="599.88" y="130" as="targetPoint" />
            <mxPoint x="599.892048192771" y="140" as="sourcePoint" />
            <Array as="points" />
          </mxGeometry>
        </mxCell>
        <mxCell id="0JqR1inI1DJOHSlyyRP6-72" style="edgeStyle=orthogonalEdgeStyle;rounded=0;orthogonalLoop=1;jettySize=auto;html=1;fillColor=#f8cecc;strokeColor=#b85450;" edge="1" parent="1" target="0JqR1inI1DJOHSlyyRP6-20">
          <mxGeometry relative="1" as="geometry">
            <mxPoint x="600" y="120" as="sourcePoint" />
            <Array as="points">
              <mxPoint x="600" y="130" />
              <mxPoint x="600" y="130" />
            </Array>
          </mxGeometry>
        </mxCell>
        <mxCell id="0JqR1inI1DJOHSlyyRP6-20" value="&amp;nbsp;TMP117 Temperature Sensor upto 150℃" style="whiteSpace=wrap;html=1;" vertex="1" parent="1">
          <mxGeometry x="540" y="140" width="120" height="60" as="geometry" />
        </mxCell>
        <mxCell id="0JqR1inI1DJOHSlyyRP6-40" value="" style="edgeStyle=orthogonalEdgeStyle;rounded=0;orthogonalLoop=1;jettySize=auto;html=1;exitX=0.5;exitY=1;exitDx=0;exitDy=0;" edge="1" parent="1" source="0JqR1inI1DJOHSlyyRP6-21">
          <mxGeometry relative="1" as="geometry">
            <mxPoint x="680" y="219.86" as="sourcePoint" />
            <mxPoint x="610" y="219.86" as="targetPoint" />
            <Array as="points">
              <mxPoint x="740" y="220" />
            </Array>
          </mxGeometry>
        </mxCell>
        <mxCell id="0JqR1inI1DJOHSlyyRP6-47" style="edgeStyle=orthogonalEdgeStyle;rounded=0;orthogonalLoop=1;jettySize=auto;html=1;fillColor=#f8cecc;strokeColor=#b85450;" edge="1" parent="1" target="0JqR1inI1DJOHSlyyRP6-21">
          <mxGeometry relative="1" as="geometry">
            <mxPoint x="370" y="170" as="sourcePoint" />
            <Array as="points">
              <mxPoint x="730" y="120" />
            </Array>
          </mxGeometry>
        </mxCell>
        <mxCell id="0JqR1inI1DJOHSlyyRP6-21" value="2.42in OLED Display" style="whiteSpace=wrap;html=1;" vertex="1" parent="1">
          <mxGeometry x="680" y="140" width="120" height="60" as="geometry" />
        </mxCell>
        <mxCell id="0JqR1inI1DJOHSlyyRP6-35" style="edgeStyle=orthogonalEdgeStyle;rounded=0;orthogonalLoop=1;jettySize=auto;html=1;exitX=-0.007;exitY=0.542;exitDx=0;exitDy=0;exitPerimeter=0;" edge="1" parent="1">
          <mxGeometry relative="1" as="geometry">
            <mxPoint x="510" y="279.25000000000006" as="targetPoint" />
            <mxPoint x="679.1600000000001" y="252.4900000000001" as="sourcePoint" />
            <Array as="points">
              <mxPoint x="679" y="249.97" />
              <mxPoint x="620" y="249.97" />
              <mxPoint x="620" y="278.97" />
            </Array>
          </mxGeometry>
        </mxCell>
        <mxCell id="0JqR1inI1DJOHSlyyRP6-38" value="SPI" style="edgeLabel;html=1;align=center;verticalAlign=middle;resizable=0;points=[];" vertex="1" connectable="0" parent="0JqR1inI1DJOHSlyyRP6-35">
          <mxGeometry x="0.2941" relative="1" as="geometry">
            <mxPoint as="offset" />
          </mxGeometry>
        </mxCell>
        <mxCell id="0JqR1inI1DJOHSlyyRP6-50" value="" style="edgeStyle=orthogonalEdgeStyle;rounded=0;orthogonalLoop=1;jettySize=auto;html=1;fillColor=#f8cecc;strokeColor=#b85450;" edge="1" parent="1">
          <mxGeometry relative="1" as="geometry">
            <mxPoint x="600" y="430" as="sourcePoint" />
            <mxPoint x="800.0344827586207" y="259.9999999999999" as="targetPoint" />
            <Array as="points">
              <mxPoint x="820" y="430" />
              <mxPoint x="820" y="260" />
            </Array>
          </mxGeometry>
        </mxCell>
        <mxCell id="0JqR1inI1DJOHSlyyRP6-23" value="Micro SD Card Reader Module" style="whiteSpace=wrap;html=1;" vertex="1" parent="1">
          <mxGeometry x="680" y="230" width="120" height="60" as="geometry" />
        </mxCell>
        <mxCell id="0JqR1inI1DJOHSlyyRP6-52" style="edgeStyle=orthogonalEdgeStyle;rounded=0;orthogonalLoop=1;jettySize=auto;html=1;fillColor=#f8cecc;strokeColor=#b85450;" edge="1" parent="1" target="0JqR1inI1DJOHSlyyRP6-51">
          <mxGeometry relative="1" as="geometry">
            <mxPoint x="740" y="430" as="sourcePoint" />
          </mxGeometry>
        </mxCell>
        <mxCell id="0JqR1inI1DJOHSlyyRP6-53" value="" style="edgeStyle=orthogonalEdgeStyle;rounded=0;orthogonalLoop=1;jettySize=auto;html=1;entryX=1.023;entryY=0.674;entryDx=0;entryDy=0;entryPerimeter=0;exitX=0.5;exitY=0;exitDx=0;exitDy=0;" edge="1" parent="1" source="0JqR1inI1DJOHSlyyRP6-51">
          <mxGeometry relative="1" as="geometry">
            <mxPoint x="787.24" y="329.61" as="sourcePoint" />
            <mxPoint x="510" y="290.05000000000007" as="targetPoint" />
            <Array as="points">
              <mxPoint x="740" y="310" />
              <mxPoint x="617" y="310" />
              <mxPoint x="617" y="290" />
            </Array>
          </mxGeometry>
        </mxCell>
        <mxCell id="0JqR1inI1DJOHSlyyRP6-54" value="D" style="edgeLabel;html=1;align=center;verticalAlign=middle;resizable=0;points=[];" vertex="1" connectable="0" parent="0JqR1inI1DJOHSlyyRP6-53">
          <mxGeometry x="-0.1627" y="2" relative="1" as="geometry">
            <mxPoint as="offset" />
          </mxGeometry>
        </mxCell>
        <mxCell id="0JqR1inI1DJOHSlyyRP6-51" value="Optical Encoder to read RPM" style="whiteSpace=wrap;html=1;" vertex="1" parent="1">
          <mxGeometry x="680" y="330" width="120" height="60" as="geometry" />
        </mxCell>
        <mxCell id="0JqR1inI1DJOHSlyyRP6-63" style="edgeStyle=orthogonalEdgeStyle;rounded=0;orthogonalLoop=1;jettySize=auto;html=1;entryX=0.5;entryY=0;entryDx=0;entryDy=0;" edge="1" parent="1" source="0JqR1inI1DJOHSlyyRP6-58" target="0JqR1inI1DJOHSlyyRP6-62">
          <mxGeometry relative="1" as="geometry" />
        </mxCell>
        <mxCell id="0JqR1inI1DJOHSlyyRP6-58" value="ESC" style="whiteSpace=wrap;html=1;" vertex="1" parent="1">
          <mxGeometry x="210" y="255" width="100" height="50" as="geometry" />
        </mxCell>
        <mxCell id="0JqR1inI1DJOHSlyyRP6-66" style="edgeStyle=orthogonalEdgeStyle;rounded=0;orthogonalLoop=1;jettySize=auto;html=1;entryX=0.25;entryY=1;entryDx=0;entryDy=0;fillColor=#d5e8d4;strokeColor=#82b366;" edge="1" parent="1">
          <mxGeometry relative="1" as="geometry">
            <mxPoint x="708.17" y="390" as="targetPoint" />
            <mxPoint x="260.0033333333333" y="420" as="sourcePoint" />
            <Array as="points">
              <mxPoint x="260" y="460" />
              <mxPoint x="708" y="460" />
            </Array>
          </mxGeometry>
        </mxCell>
        <mxCell id="0JqR1inI1DJOHSlyyRP6-67" value="Shaft" style="edgeLabel;html=1;align=center;verticalAlign=middle;resizable=0;points=[];" vertex="1" connectable="0" parent="0JqR1inI1DJOHSlyyRP6-66">
          <mxGeometry x="-0.6324" y="-1" relative="1" as="geometry">
            <mxPoint as="offset" />
          </mxGeometry>
        </mxCell>
        <mxCell id="0JqR1inI1DJOHSlyyRP6-62" value="BLDC Motor" style="ellipse;whiteSpace=wrap;html=1;" vertex="1" parent="1">
          <mxGeometry x="220" y="340" width="80" height="80" as="geometry" />
        </mxCell>
        <mxCell id="0JqR1inI1DJOHSlyyRP6-65" style="edgeStyle=orthogonalEdgeStyle;rounded=0;orthogonalLoop=1;jettySize=auto;html=1;entryX=0.539;entryY=0.037;entryDx=0;entryDy=0;entryPerimeter=0;" edge="1" parent="1" source="0JqR1inI1DJOHSlyyRP6-2" target="0JqR1inI1DJOHSlyyRP6-58">
          <mxGeometry relative="1" as="geometry">
            <Array as="points">
              <mxPoint x="200" y="170" />
              <mxPoint x="200" y="230" />
              <mxPoint x="264" y="230" />
            </Array>
          </mxGeometry>
        </mxCell>
      </root>
    </mxGraphModel>
  </diagram>
</mxfile>
